<svg width="15" height="18" viewBox="0 0 15 18" fill="none" xmlns="http://www.w3.org/2000/svg">
<path fill-rule="evenodd" clip-rule="evenodd" d="M7.41666 2.25C4.10477 2.25 1.5 4.75537 1.5 7.73C1.5 10.7114 3.58939 13.1005 6.62049 13.2509C7.01977 13.2707 7.33333 13.6002 7.33333 14V15.3009C8.74114 14.5663 10.0972 13.6509 11.163 12.557C12.4882 11.1966 13.3333 9.59585 13.3333 7.73C13.3333 4.75536 10.7286 2.25 7.41666 2.25ZM0 7.73C0 3.83297 3.37355 0.75 7.41666 0.75C11.4598 0.75 14.8333 3.83298 14.8333 7.73C14.8333 10.0934 13.7509 12.0501 12.2374 13.6037C10.7304 15.1506 8.76549 16.3329 6.8934 17.1829C6.66127 17.2883 6.39148 17.2686 6.17716 17.1305C5.96284 16.9924 5.83333 16.7549 5.83333 16.5V14.6796C2.33484 14.1663 0 11.2168 0 7.73Z" fill="#F59607"/>
</svg>
