<svg width="20" height="20" viewBox="0 0 20 20" fill="none" xmlns="http://www.w3.org/2000/svg">
<path fill-rule="evenodd" clip-rule="evenodd" d="M13.7748 7.47499C13.8918 7.59217 13.9576 7.75103 13.9576 7.91665C13.9576 8.08228 13.8918 8.24113 13.7748 8.35832L10.4415 11.6917C10.3243 11.8087 10.1654 11.8744 9.9998 11.8744C9.83418 11.8744 9.67532 11.8087 9.55814 11.6917L6.2248 8.35832C6.1634 8.3011 6.11414 8.2321 6.07998 8.15543C6.04582 8.07877 6.02746 7.99601 6.02598 7.91209C6.0245 7.82817 6.03993 7.74481 6.07137 7.66699C6.1028 7.58916 6.14959 7.51847 6.20894 7.45912C6.26829 7.39977 6.33898 7.35298 6.4168 7.32155C6.49463 7.29012 6.57799 7.27468 6.6619 7.27616C6.74582 7.27764 6.82858 7.29601 6.90525 7.33017C6.98192 7.36433 7.05092 7.41358 7.10814 7.47499L9.9998 10.3667L12.8915 7.47499C13.0087 7.35794 13.1675 7.2922 13.3331 7.2922C13.4988 7.2922 13.6576 7.35794 13.7748 7.47499Z" fill="#5833FF"/>
</svg>
