<svg width="100" height="19" viewBox="0 0 100 19" fill="none" xmlns="http://www.w3.org/2000/svg">
<path d="M36.1165 3.3672H32.7424V13.1301H36.1165C37.663 13.1301 38.9142 12.6559 39.8843 11.7214C40.8402 10.7869 41.3183 9.6294 41.3183 8.24863C41.3183 6.86789 40.8402 5.71029 39.8843 4.77584C38.9142 3.8414 37.663 3.3672 36.1165 3.3672ZM36.1165 12.1259H33.8671V4.37138H36.1165C37.3396 4.37138 38.3378 4.74795 39.0829 5.48714C39.828 6.22633 40.1935 7.14682 40.1935 8.24863C40.1935 9.35046 39.828 10.2709 39.0829 11.0102C38.3378 11.7493 37.3396 12.1259 36.1165 12.1259ZM42.9684 10.1175H49.323C49.3371 9.90834 49.3511 9.75493 49.3511 9.64333C49.3511 8.62517 48.9856 7.74656 48.2686 7.0213C47.5516 6.29606 46.6799 5.93344 45.6536 5.93344C44.5992 5.93344 43.7136 6.29606 42.9684 7.0213C42.2233 7.74656 41.8577 8.62517 41.8577 9.64333C41.8577 10.6615 42.2233 11.5401 42.9684 12.2654C43.7136 12.9906 44.5992 13.3532 45.6536 13.3532C46.3566 13.3532 47.0033 13.1719 47.5797 12.8093C48.1561 12.4467 48.606 11.9724 48.9294 11.3728H47.7063C47.1861 12.0562 46.4972 12.4049 45.6536 12.4049C44.9929 12.4049 44.4024 12.1816 43.8963 11.7493C43.3902 11.317 43.0809 10.773 42.9684 10.1175ZM42.9684 9.16912C43.0809 8.51364 43.3902 7.96969 43.8963 7.53735C44.4024 7.10498 44.9929 6.88183 45.6536 6.88183C46.3004 6.88183 46.8627 7.10498 47.3548 7.53735C47.8469 7.96969 48.1421 8.51364 48.2405 9.16912H42.9684ZM54.9577 6.15659L52.638 11.847L50.3043 6.15659H49.2077L52.1178 13.1301H53.0738L55.984 6.15659H54.9577ZM64.4647 3.3672L61.7373 9.08545L58.9958 3.3672H56.6199V13.1301H58.1382V5.34767L60.9219 11.0102H62.4402L65.2238 5.34767V13.1301H66.9109V3.3672H64.4647ZM73.9133 6.15659V7.24445C73.2525 6.3658 72.3949 5.93344 71.3263 5.93344C70.3563 5.93344 69.4987 6.29606 68.7677 7.0213C68.0366 7.76049 67.6711 8.62517 67.6711 9.64333C67.6711 10.6615 68.0366 11.5262 68.7677 12.2514C69.4987 12.9906 70.3563 13.3532 71.3263 13.3532C72.3949 13.3532 73.2525 12.9209 73.9133 12.0422V13.1301H75.3331V6.15659H73.9133ZM71.5091 11.9306C70.9046 11.9306 70.3844 11.7075 69.9486 11.2612C69.5128 10.8149 69.2878 10.2709 69.2878 9.64333C69.2878 9.01572 69.5128 8.47177 69.9486 8.0255C70.3844 7.57915 70.9046 7.35601 71.5091 7.35601C72.1137 7.35601 72.6479 7.57915 73.0837 8.0255C73.5196 8.47177 73.7302 9.01572 73.7302 9.64333C73.7302 10.2709 73.5196 10.8149 73.0837 11.2612C72.6479 11.7075 72.1137 11.9306 71.5091 11.9306ZM80.1339 5.93344C79.2346 5.93344 78.503 6.28211 77.9412 6.96551V6.15659H76.5066V13.1301H78.1236V8.73678C78.1236 8.36024 78.2927 8.0255 78.6441 7.76049C78.9809 7.49548 79.389 7.35601 79.8809 7.35601C80.2324 7.35601 80.4993 7.36995 80.6964 7.41182V5.98923C80.5133 5.94739 80.3309 5.93344 80.1339 5.93344ZM81.2133 13.1301H82.8302V2.9209H81.2133V13.1301ZM87.3721 13.3532C88.4265 13.3532 89.3405 12.9906 90.0853 12.2654C90.8302 11.5401 91.1964 10.6615 91.1964 9.64333C91.1964 8.62517 90.8302 7.74656 90.0853 7.0213C89.3405 6.29606 88.4265 5.93344 87.3721 5.93344C86.3177 5.93344 85.4037 6.29606 84.6588 7.0213C83.9133 7.74656 83.5338 8.62517 83.5338 9.64333C83.5338 10.6615 83.9133 11.5401 84.6588 12.2654C85.4037 12.9906 86.3177 13.3532 87.3721 13.3532ZM87.3721 11.9306C86.7677 11.9306 86.2471 11.7075 85.8118 11.2612C85.3758 10.8149 85.1508 10.2709 85.1508 9.64333C85.1508 9.01572 85.3758 8.47177 85.8118 8.0255C86.2471 7.57915 86.7677 7.35601 87.3721 7.35601C87.9765 7.35601 88.5111 7.57915 88.9464 8.0255C89.3824 8.47177 89.5934 9.01572 89.5934 9.64333C89.5934 10.2709 89.3824 10.8149 88.9464 11.2612C88.5111 11.7075 87.9765 11.9306 87.3721 11.9306ZM95.5441 5.93344C94.6441 5.93344 93.9133 6.28211 93.3508 6.96551V6.15659H91.9169V13.1301H93.5331V8.73678C93.5331 8.36024 93.7022 8.0255 94.0537 7.76049C94.3912 7.49548 94.7986 7.35601 95.2905 7.35601C95.7831 7.35601 96.1905 7.49548 96.5419 7.76049C96.8934 8.0255 97.0625 8.36024 97.0625 8.73678V13.1301H98.6647V8.61124C98.6647 7.88603 98.3412 7.2584 97.7089 6.72842C97.0765 6.19843 96.3449 5.93344 95.5441 5.93344Z" fill="white"/>
<mask id="mask0_17_2712" style="mask-type:luminance" maskUnits="userSpaceOnUse" x="0" y="1" width="26" height="16">
<path d="M25.7353 1.45898H0V16.7773H25.7353V1.45898Z" fill="white"/>
</mask>
<g mask="url(#mask0_17_2712)">
<path d="M19.2857 4.8697L17.8314 4.391H17.7682L16.2506 3.85247L16.8829 1.45898L13.5949 2.53605C13.5316 2.53605 13.4684 2.59589 13.4051 2.65572C13.3419 2.71557 13.2787 2.7754 13.2787 2.83524L12.5199 5.76726L12.4567 6.06644L10.9391 11.8706L7.90397 10.9132L2.65578 9.29765H2.59254L8.78926 7.32305L9.42154 4.8697L9.67448 3.79263L7.90397 4.391H7.84081L0.252972 6.84432C0.203642 6.84716 0.157115 6.86699 0.122169 6.90005C0.0872228 6.93313 0.0662748 6.97715 0.063277 7.02384C0.0129842 7.09405 -0.00941656 7.17884 4.53296e-05 7.26318V10.9132C0.0043289 11.128 0.0799191 11.336 0.216105 11.5079C0.352291 11.6797 0.542166 11.8066 0.758823 11.8706L7.08199 13.9051L7.90397 14.1444L10.1171 14.8625L9.61125 16.7773L12.7729 15.8199H12.8361C12.9626 15.7601 13.0257 15.7601 13.089 15.6404C13.1556 15.5744 13.1996 15.491 13.2154 15.401L13.8478 12.9477L14.0375 12.2296L15.4286 6.84432L18.4004 7.80171L23.0164 9.29765H22.9532L17.6417 11.0329L16.8829 13.9051L16.6932 14.5035L17.7682 14.1444L25.4192 11.6911C25.4735 11.6827 25.5249 11.662 25.5689 11.6308C25.6129 11.5995 25.6484 11.5586 25.6721 11.5116C25.7224 11.4414 25.7448 11.3566 25.7354 11.2723V7.62219C25.731 7.40744 25.6554 7.19942 25.5193 7.02759C25.3831 6.85575 25.1932 6.72884 24.9765 6.66481L19.2857 4.8697Z" fill="white"/>
</g>
</svg>
