<svg width="120" height="24" viewBox="0 0 120 24" fill="none" xmlns="http://www.w3.org/2000/svg">
<path d="M10.9718 2.70846C11.4382 1.93348 12.5618 1.93348 13.0282 2.70847L15.3586 6.58087C15.5262 6.85928 15.7995 7.05784 16.116 7.13116L20.5191 8.15091C21.4002 8.35499 21.7474 9.42356 21.1545 10.1066L18.1918 13.5196C17.9788 13.765 17.8744 14.0863 17.9025 14.41L18.2932 18.9127C18.3714 19.8138 17.4625 20.4742 16.6296 20.1214L12.4681 18.3583C12.1689 18.2316 11.8311 18.2316 11.5319 18.3583L7.37038 20.1214C6.53754 20.4742 5.62856 19.8138 5.70677 18.9127L6.09754 14.41C6.12563 14.0863 6.02124 13.765 5.80823 13.5196L2.8455 10.1066C2.25257 9.42356 2.59977 8.35499 3.48095 8.15091L7.88397 7.13116C8.20053 7.05784 8.47383 6.85928 8.64138 6.58087L10.9718 2.70846Z" fill="#F59607" stroke="#F59607" stroke-width="1.5"/>
<path d="M34.9718 2.70846C35.4382 1.93348 36.5618 1.93348 37.0282 2.70847L39.3586 6.58087C39.5262 6.85928 39.7995 7.05784 40.116 7.13116L44.5191 8.15091C45.4002 8.35499 45.7474 9.42356 45.1545 10.1066L42.1918 13.5196C41.9788 13.765 41.8744 14.0863 41.9025 14.41L42.2932 18.9127C42.3714 19.8138 41.4625 20.4742 40.6296 20.1214L36.4681 18.3583C36.1689 18.2316 35.8311 18.2316 35.5319 18.3583L31.3704 20.1214C30.5375 20.4742 29.6286 19.8138 29.7068 18.9127L30.0975 14.41C30.1256 14.0863 30.0212 13.765 29.8082 13.5196L26.8455 10.1066C26.2526 9.42356 26.5998 8.35499 27.4809 8.15091L31.884 7.13116C32.2005 7.05784 32.4738 6.85928 32.6414 6.58087L34.9718 2.70846Z" fill="#F59607" stroke="#F59607" stroke-width="1.5"/>
<path d="M58.9718 2.70846C59.4382 1.93348 60.5618 1.93348 61.0282 2.70847L63.3586 6.58087C63.5262 6.85928 63.7995 7.05784 64.116 7.13116L68.5191 8.15091C69.4002 8.35499 69.7474 9.42356 69.1545 10.1066L66.1918 13.5196C65.9788 13.765 65.8744 14.0863 65.9025 14.41L66.2932 18.9127C66.3714 19.8138 65.4625 20.4742 64.6296 20.1214L60.4681 18.3583C60.1689 18.2316 59.8311 18.2316 59.5319 18.3583L55.3704 20.1214C54.5375 20.4742 53.6286 19.8138 53.7068 18.9127L54.0975 14.41C54.1256 14.0863 54.0212 13.765 53.8082 13.5196L50.8455 10.1066C50.2526 9.42356 50.5998 8.35499 51.4809 8.15091L55.884 7.13116C56.2005 7.05784 56.4738 6.85928 56.6414 6.58087L58.9718 2.70846Z" fill="#F59607" stroke="#F59607" stroke-width="1.5"/>
<path d="M82.9718 2.70846C83.4382 1.93348 84.5618 1.93348 85.0282 2.70847L87.3586 6.58087C87.5262 6.85928 87.7995 7.05784 88.116 7.13116L92.5191 8.15091C93.4002 8.35499 93.7474 9.42356 93.1545 10.1066L90.1918 13.5196C89.9788 13.765 89.8744 14.0863 89.9025 14.41L90.2932 18.9127C90.3714 19.8138 89.4625 20.4742 88.6296 20.1214L84.4681 18.3583C84.1689 18.2316 83.8311 18.2316 83.5319 18.3583L79.3704 20.1214C78.5375 20.4742 77.6286 19.8138 77.7068 18.9127L78.0975 14.41C78.1256 14.0863 78.0212 13.765 77.8082 13.5196L74.8455 10.1066C74.2526 9.42356 74.5998 8.35499 75.4809 8.15091L79.884 7.13116C80.2005 7.05784 80.4738 6.85928 80.6414 6.58087L82.9718 2.70846Z" fill="#F59607" stroke="#F59607" stroke-width="1.5"/>
<path d="M106.972 2.70846C107.438 1.93348 108.562 1.93348 109.028 2.70847L111.359 6.58087C111.526 6.85928 111.799 7.05784 112.116 7.13116L116.519 8.15091C117.4 8.35499 117.747 9.42356 117.154 10.1066L114.192 13.5196C113.979 13.765 113.874 14.0863 113.902 14.41L114.293 18.9127C114.371 19.8138 113.462 20.4742 112.63 20.1214L108.468 18.3583C108.169 18.2316 107.831 18.2316 107.532 18.3583L103.37 20.1214C102.538 20.4742 101.629 19.8138 101.707 18.9127L102.098 14.41C102.126 14.0863 102.021 13.765 101.808 13.5196L98.8455 10.1066C98.2526 9.42356 98.5998 8.35499 99.4809 8.15091L103.884 7.13116C104.201 7.05784 104.474 6.85928 104.641 6.58087L106.972 2.70846Z" fill="#F59607" stroke="#F59607" stroke-width="1.5"/>
</svg>
