<svg width="17" height="17" viewBox="0 0 17 17" fill="none" xmlns="http://www.w3.org/2000/svg">
<path d="M11.7 0H4.962C3.64648 0.00158783 2.3853 0.524878 1.45509 1.45509C0.524878 2.3853 0.00158783 3.64648 0 4.962L0 11.695C0.00158783 13.0105 0.524878 14.2717 1.45509 15.2019C2.3853 16.1321 3.64648 16.6554 4.962 16.657H11.7C13.0155 16.6554 14.2767 16.1321 15.2069 15.2019C16.1371 14.2717 16.6604 13.0105 16.662 11.695V4.962C16.6604 3.64648 16.1371 2.3853 15.2069 1.45509C14.2767 0.524878 13.0155 0.00158783 11.7 0V0ZM14.987 11.695C14.9867 12.5666 14.6403 13.4024 14.0239 14.0186C13.4075 14.6348 12.5716 14.981 11.7 14.981H4.962C4.09023 14.981 3.25417 14.6347 2.63774 14.0183C2.02131 13.4018 1.675 12.5658 1.675 11.694V4.962C1.67527 4.09041 2.02169 3.2546 2.63809 2.63839C3.2545 2.02217 4.09041 1.676 4.962 1.676H11.7C12.5718 1.676 13.4078 2.02231 14.0243 2.63874C14.6407 3.25517 14.987 4.09123 14.987 4.963V11.7V11.695Z" fill="white"/>
<path d="M8.32948 4.021C7.47744 4.021 6.64453 4.27366 5.93608 4.74702C5.22763 5.22039 4.67547 5.89321 4.34941 6.68039C4.02335 7.46757 3.93804 8.33378 4.10426 9.16945C4.27049 10.0051 4.68078 10.7727 5.28326 11.3752C5.88575 11.9777 6.65336 12.388 7.48903 12.5542C8.3247 12.7204 9.1909 12.6351 9.97809 12.3091C10.7653 11.983 11.4381 11.4308 11.9115 10.7224C12.3848 10.0139 12.6375 9.18104 12.6375 8.32899C12.6375 7.18644 12.1836 6.09068 11.3757 5.28278C10.5678 4.47487 9.47204 4.021 8.32948 4.021ZM8.32948 10.961C7.80892 10.961 7.30005 10.8066 6.86722 10.5174C6.43439 10.2282 6.09704 9.81715 5.89783 9.33621C5.69862 8.85528 5.64651 8.32608 5.74806 7.81552C5.84962 7.30496 6.10029 6.83599 6.46838 6.4679C6.83648 6.0998 7.30545 5.84913 7.81601 5.74757C8.32657 5.64602 8.85577 5.69813 9.3367 5.89734C9.81764 6.09655 10.2287 6.4339 10.5179 6.86673C10.8071 7.29956 10.9615 7.80843 10.9615 8.32899C10.9615 9.02704 10.6842 9.6965 10.1906 10.1901C9.69699 10.6837 9.02753 10.961 8.32948 10.961Z" fill="white"/>
<path d="M12.6453 5.08402C13.2152 5.08402 13.6773 4.62198 13.6773 4.05202C13.6773 3.48206 13.2152 3.02002 12.6453 3.02002C12.0753 3.02002 11.6133 3.48206 11.6133 4.05202C11.6133 4.62198 12.0753 5.08402 12.6453 5.08402Z" fill="white"/>
</svg>
