<svg width="17" height="17" viewBox="0 0 17 17" fill="none" xmlns="http://www.w3.org/2000/svg">
<path d="M4.4088 5.45911H1.17511C1.10636 5.45911 1.04043 5.48641 0.991816 5.53503C0.943204 5.58364 0.915894 5.64957 0.915894 5.71832V16.098C0.915894 16.1667 0.943204 16.2327 0.991816 16.2813C1.04043 16.3299 1.10636 16.3572 1.17511 16.3572H4.4088C4.47755 16.3572 4.54348 16.3299 4.59209 16.2813C4.6407 16.2327 4.66801 16.1667 4.66801 16.098V5.71832C4.66801 5.64957 4.6407 5.58364 4.59209 5.53503C4.54348 5.48641 4.47755 5.45911 4.4088 5.45911Z" fill="white"/>
<path d="M2.79124 0.299438C2.37012 0.299438 1.95845 0.424317 1.60829 0.658283C1.25814 0.892249 0.985227 1.22479 0.824068 1.61386C0.66291 2.00293 0.620743 2.43106 0.702901 2.84409C0.785059 3.25713 0.987851 3.63653 1.28563 3.93431C1.58342 4.23209 1.96281 4.43488 2.37585 4.51704C2.78888 4.5992 3.21701 4.55703 3.60608 4.39587C3.99515 4.23471 4.32769 3.9618 4.56166 3.61165C4.79562 3.26149 4.9205 2.84982 4.9205 2.4287C4.9205 1.86398 4.69617 1.3224 4.29686 0.923083C3.89754 0.52377 3.35596 0.299438 2.79124 0.299438Z" fill="white"/>
<path d="M12.6273 5.2011C12.0971 5.19031 11.5704 5.29076 11.0814 5.49598C10.5924 5.70119 10.1518 6.00662 9.78799 6.39256V5.7186C9.78799 5.64986 9.76067 5.58392 9.71206 5.53531C9.66345 5.4867 9.59753 5.45939 9.52878 5.45939H6.43487C6.36612 5.45939 6.30019 5.4867 6.25158 5.53531C6.20297 5.58392 6.17566 5.64986 6.17566 5.7186V16.0983C6.17566 16.167 6.20297 16.2329 6.25158 16.2816C6.30019 16.3302 6.36612 16.3575 6.43487 16.3575H9.65931C9.72806 16.3575 9.79399 16.3302 9.8426 16.2816C9.89121 16.2329 9.91852 16.167 9.91852 16.0983V10.9631C9.91852 9.2328 10.3888 8.55607 11.5951 8.55607C12.9087 8.55607 13.0134 9.63644 13.0134 11.0501V16.0964C13.0134 16.1652 13.0407 16.2311 13.0893 16.2797C13.1379 16.3283 13.2038 16.3556 13.2726 16.3556H16.4979C16.5667 16.3556 16.6326 16.3283 16.6812 16.2797C16.7298 16.2311 16.7571 16.1652 16.7571 16.0964V10.403C16.7571 7.82934 16.2665 5.2011 12.6273 5.2011Z" fill="white"/>
</svg>
