<svg width="25" height="24" viewBox="0 0 25 24" fill="none" xmlns="http://www.w3.org/2000/svg">
<path fill-rule="evenodd" clip-rule="evenodd" d="M4.1756 10.4167C4.1756 5.62281 8.10053 1.75 12.9256 1.75C17.7507 1.75 21.6756 5.62281 21.6756 10.4167C21.6756 13.3982 19.9369 16.3409 18.0942 18.4829C17.1616 19.5669 16.1719 20.482 15.2989 21.1328C14.863 21.4577 14.4442 21.7258 14.0661 21.9162C13.7116 22.0947 13.3068 22.25 12.9256 22.25C12.5444 22.25 12.1396 22.0947 11.7851 21.9162C11.407 21.7258 10.9882 21.4577 10.5523 21.1328C9.67931 20.482 8.68955 19.5669 7.75704 18.4829C5.91432 16.3409 4.1756 13.3982 4.1756 10.4167ZM12.9256 13C11.2687 13 9.9256 11.6569 9.9256 10C9.9256 8.34315 11.2687 7 12.9256 7C14.5825 7 15.9256 8.34315 15.9256 10C15.9256 11.6569 14.5825 13 12.9256 13Z" fill="white"/>
</svg>
