<svg width="144" height="38" viewBox="0 0 144 38" fill="none" xmlns="http://www.w3.org/2000/svg">
<path d="M27.0595 20.4407C25.5868 21.6813 23.6933 22.4284 21.6271 22.4284C19.561 22.4284 17.5596 21.6377 16.0707 20.3343C14.606 19.0501 13.581 17.2668 13.2547 15.2437C13.109 17.6077 12.0975 19.7317 10.5358 21.2996C10.026 21.8122 9.45954 22.2648 8.84186 22.6465C7.76024 23.3173 6.53026 23.7726 5.21397 23.9472C4.81477 23.999 4.41017 24.0262 3.99748 24.0262C2.5733 24.0262 1.22195 23.7018 0.0135498 23.121V27.4973C1.2705 27.8954 2.60837 28.1108 3.99748 28.1108C4.84983 28.1108 5.686 28.029 6.4952 27.8735C7.77642 27.6281 8.99021 27.1973 10.1123 26.6084C11.2694 26.0031 12.3295 25.2287 13.2574 24.3207C15.5447 26.1912 18.4551 27.3118 21.6244 27.3118C24.7938 27.3118 27.6125 26.2266 29.8836 24.4107C30.9814 25.4768 32.2626 26.3548 33.6706 26.9928C34.8359 27.5191 36.0901 27.8817 37.4037 28.0508C37.9594 28.1217 38.5258 28.1598 39.103 28.1598C40.5461 28.1598 41.9352 27.9281 43.2353 27.5V23.0964C41.9919 23.7236 40.5892 24.0753 39.103 24.0753C38.9816 24.0753 38.863 24.0753 38.7443 24.0699C37.4253 24.018 36.1764 23.6908 35.0544 23.1373C34.1589 22.6983 33.3416 22.1148 32.6376 21.4195C31.1486 19.9553 30.1452 17.9867 29.8917 15.789C29.4682 17.6404 28.454 19.2627 27.0568 20.4407H27.0595Z" fill="white"/>
<mask id="mask0_46_2624" style="mask-type:luminance" maskUnits="userSpaceOnUse" x="0" y="15" width="44" height="14">
<path d="M27.0595 20.4407C25.5868 21.6813 23.6933 22.4284 21.6271 22.4284C19.561 22.4284 17.5596 21.6377 16.0707 20.3343C14.606 19.0501 13.581 17.2668 13.2547 15.2437C13.109 17.6077 12.0975 19.7317 10.5358 21.2996C10.026 21.8122 9.45954 22.2648 8.84186 22.6465C7.76024 23.3173 6.53026 23.7726 5.21397 23.9472C4.81477 23.999 4.41017 24.0262 3.99748 24.0262C2.5733 24.0262 1.22195 23.7018 0.0135498 23.121V27.4973C1.2705 27.8954 2.60837 28.1108 3.99748 28.1108C4.84983 28.1108 5.686 28.029 6.4952 27.8735C7.77642 27.6281 8.99021 27.1973 10.1123 26.6084C11.2694 26.0031 12.3295 25.2287 13.2574 24.3207C15.5447 26.1912 18.4551 27.3118 21.6244 27.3118C24.7938 27.3118 27.6125 26.2266 29.8836 24.4107C30.9814 25.4768 32.2626 26.3548 33.6706 26.9928C34.8359 27.5191 36.0901 27.8817 37.4037 28.0508C37.9594 28.1217 38.5258 28.1598 39.103 28.1598C40.5461 28.1598 41.9352 27.9281 43.2353 27.5V23.0964C41.9919 23.7236 40.5892 24.0753 39.103 24.0753C38.9816 24.0753 38.863 24.0753 38.7443 24.0699C37.4253 24.018 36.1764 23.6908 35.0544 23.1373C34.1589 22.6983 33.3416 22.1148 32.6376 21.4195C31.1486 19.9553 30.1452 17.9867 29.8917 15.789C29.4682 17.6404 28.454 19.2627 27.0568 20.4407H27.0595Z" fill="white"/>
</mask>
<g mask="url(#mask0_46_2624)">
<path d="M43.2428 27.9922L0.015686 28.0532L0.0159045 28.2114L43.243 28.1504L43.2428 27.9922Z" fill="white"/>
<path d="M43.2437 27.8612L0.0165405 27.9146L0.0167877 28.1191L43.2439 28.0657L43.2437 27.8612Z" fill="white"/>
<path d="M43.2436 27.7274L0.0164185 27.7808L0.0166656 27.9853L43.2438 27.9319L43.2436 27.7274Z" fill="white"/>
<path d="M43.2422 27.5889L0.0150757 27.6499L0.0153581 27.8544L43.2425 27.7934L43.2422 27.5889Z" fill="white"/>
<path d="M43.2435 27.4475L0.0164185 27.5161L0.0167362 27.7206L43.2438 27.652L43.2435 27.4475Z" fill="white"/>
<path d="M43.2415 27.3234L0.0144043 27.3691L0.0146161 27.5736L43.2418 27.5279L43.2415 27.3234Z" fill="white"/>
<path d="M43.2414 27.1896L0.0142822 27.2354L0.0144941 27.4399L43.2416 27.3941L43.2414 27.1896Z" fill="white"/>
<path d="M43.2429 27.0412L0.0158081 27.1099L0.0161259 27.3144L43.2432 27.2457L43.2429 27.0412Z" fill="white"/>
<path d="M43.2413 26.9097L0.0141602 26.9707L0.0144426 27.1752L43.2416 27.1142L43.2413 26.9097Z" fill="white"/>
<path d="M43.2397 26.7757L0.0125732 26.8291L0.0128204 27.0336L43.2399 26.9802L43.2397 26.7757Z" fill="white"/>
<path d="M43.2422 26.6419L0.0150757 26.6953L0.0153228 26.8998L43.2425 26.8464L43.2422 26.6419Z" fill="white"/>
<path d="M43.2407 26.5104L0.0136108 26.5562L0.0138227 26.7607L43.241 26.7149L43.2407 26.5104Z" fill="white"/>
<path d="M43.2391 26.3625L0.0120239 26.4312L0.0123417 26.6357L43.2394 26.567L43.2391 26.3625Z" fill="white"/>
<path d="M43.2417 26.2327L0.0145874 26.2861L0.0148346 26.4906L43.242 26.4372L43.2417 26.2327Z" fill="white"/>
<path d="M43.2403 26.1046L0.0131836 26.1504L0.0133954 26.3549L43.2405 26.3091L43.2403 26.1046Z" fill="white"/>
<path d="M43.2414 25.9632L0.0142822 26.0166L0.0145294 26.2211L43.2417 26.1677L43.2414 25.9632Z" fill="white"/>
<path d="M43.2398 25.8242L0.0126953 25.8853L0.0129778 26.0898L43.2401 26.0287L43.2398 25.8242Z" fill="white"/>
<path d="M43.2399 25.6955L0.0127563 25.7412L0.0129682 25.9457L43.2401 25.9L43.2399 25.6955Z" fill="white"/>
<path d="M43.2409 25.557L0.0137939 25.6104L0.0140411 25.8149L43.2412 25.7615L43.2409 25.557Z" fill="white"/>
<path d="M43.2396 25.4254L0.0124512 25.4712L0.012663 25.6757L43.2398 25.6299L43.2396 25.4254Z" fill="white"/>
<path d="M43.239 25.2818L0.0119019 25.3428L0.0121843 25.5473L43.2393 25.4863L43.239 25.2818Z" fill="white"/>
<path d="M43.2399 25.1408L0.0128174 25.2095L0.0131352 25.414L43.2402 25.3453L43.2399 25.1408Z" fill="white"/>
<path d="M43.2392 25.0192L0.0120239 25.0649L0.0122358 25.2694L43.2394 25.2237L43.2392 25.0192Z" fill="white"/>
<path d="M43.2401 24.8783L0.0130005 24.9316L0.0132476 25.1361L43.2404 25.0828L43.2401 24.8783Z" fill="white"/>
<path d="M43.2383 24.7393L0.0111694 24.8003L0.0114519 25.0048L43.2386 24.9438L43.2383 24.7393Z" fill="white"/>
<path d="M43.2354 24.603L0.00830078 24.6641L0.00858324 24.8686L43.2357 24.8075L43.2354 24.603Z" fill="white"/>
<path d="M43.237 24.4715L0.00982666 24.5249L0.0100738 24.7294L43.2372 24.676L43.237 24.4715Z" fill="white"/>
<path d="M43.2384 24.34L0.0112915 24.3857L0.0115034 24.5902L43.2386 24.5445L43.2384 24.34Z" fill="white"/>
<path d="M43.2384 24.2038L0.0112305 24.2495L0.0114423 24.454L43.2386 24.4083L43.2384 24.2038Z" fill="white"/>
<path d="M43.2383 24.0554L0.0111694 24.124L0.0114872 24.3285L43.2386 24.2599L43.2383 24.0554Z" fill="white"/>
<path d="M43.2381 23.9342L0.0109253 23.98L0.0111371 24.1845L43.2383 24.1387L43.2381 23.9342Z" fill="white"/>
<path d="M43.2388 23.7928L0.0116577 23.8462L0.0119049 24.0507L43.239 23.9973L43.2388 23.7928Z" fill="white"/>
<path d="M43.2387 23.6566L0.0115356 23.71L0.0117828 23.9145L43.2389 23.8611L43.2387 23.6566Z" fill="white"/>
<path d="M43.2366 23.5181L0.00952148 23.5791L0.00980395 23.7836L43.2369 23.7226L43.2366 23.5181Z" fill="white"/>
<path d="M43.2383 23.3866L0.0111694 23.4399L0.0114166 23.6444L43.2385 23.5911L43.2383 23.3866Z" fill="white"/>
<path d="M43.2373 23.255L0.0101929 23.3008L0.0104047 23.5053L43.2375 23.4595L43.2373 23.255Z" fill="white"/>
<path d="M43.2372 23.1188L0.0100708 23.1646L0.0102826 23.3691L43.2374 23.3233L43.2372 23.1188Z" fill="white"/>
<path d="M43.2366 22.9704L0.00946045 23.0391L0.00977822 23.2436L43.2369 23.1749L43.2366 22.9704Z" fill="white"/>
<path d="M43.2357 22.8413L0.00854492 22.9023L0.00882738 23.1068L43.236 23.0458L43.2357 22.8413Z" fill="white"/>
<path d="M43.2375 22.7078L0.010376 22.7612L0.0106231 22.9657L43.2378 22.9123L43.2375 22.7078Z" fill="white"/>
<path d="M43.2373 22.5711L0.0101318 22.6245L0.010379 22.829L43.2375 22.7756L43.2373 22.5711Z" fill="white"/>
<path d="M43.2324 22.4331L0.00524902 22.4941L0.00553149 22.6986L43.2327 22.6376L43.2324 22.4331Z" fill="white"/>
<path d="M43.2355 22.2942L0.00842285 22.3628L0.00874062 22.5673L43.2358 22.4987L43.2355 22.2942Z" fill="white"/>
<path d="M43.2335 22.1696L0.00634766 22.2153L0.0065595 22.4198L43.2337 22.3741L43.2335 22.1696Z" fill="white"/>
<path d="M43.2334 22.0333L0.00622559 22.0791L0.00643743 22.2836L43.2336 22.2378L43.2334 22.0333Z" fill="white"/>
<path d="M43.2365 21.8919L0.00933838 21.9453L0.00958553 22.1498L43.2367 22.0964L43.2365 21.8919Z" fill="white"/>
<path d="M43.2341 21.7564L0.00701904 21.8174L0.0073015 22.0219L43.2344 21.9609L43.2341 21.7564Z" fill="white"/>
<path d="M43.2362 21.6224L0.0090332 21.6758L0.00928036 21.8803L43.2364 21.8269L43.2362 21.6224Z" fill="white"/>
<path d="M43.236 21.4862L0.00891113 21.5396L0.00915829 21.7441L43.2363 21.6907L43.236 21.4862Z" fill="white"/>
<path d="M43.2354 21.3546L0.00823975 21.4004L0.00845159 21.6049L43.2356 21.5591L43.2354 21.3546Z" fill="white"/>
<path d="M43.2338 21.2087L0.00671387 21.2773L0.00703164 21.4818L43.2341 21.4132L43.2338 21.2087Z" fill="white"/>
<path d="M43.2351 21.0846L0.00799561 21.1304L0.00820745 21.3349L43.2353 21.2891L43.2351 21.0846Z" fill="white"/>
<path d="M43.235 20.9484L0.0078125 20.9941L0.00802435 21.1986L43.2352 21.1529L43.235 20.9484Z" fill="white"/>
<path d="M43.2352 20.807L0.00805664 20.8604L0.00830379 21.0649L43.2354 21.0115L43.2352 20.807Z" fill="white"/>
<path d="M43.2327 20.6709L0.0055542 20.7319L0.00583666 20.9364L43.233 20.8754L43.2327 20.6709Z" fill="white"/>
<path d="M43.2325 20.5347L0.00537109 20.5957L0.00565356 20.8002L43.2328 20.7392L43.2325 20.5347Z" fill="white"/>
<path d="M43.2319 20.4007L0.00482178 20.4541L0.00506893 20.6586L43.2322 20.6052L43.2319 20.4007Z" fill="white"/>
<path d="M43.2315 20.2692L0.00439453 20.3149L0.00460638 20.5194L43.2317 20.4737L43.2315 20.2692Z" fill="white"/>
<path d="M43.2322 20.1237L0.00506592 20.1924L0.00538369 20.3969L43.2325 20.3282L43.2322 20.1237Z" fill="white"/>
<path d="M43.2317 19.9922L0.00457764 20.0532L0.0048601 20.2577L43.232 20.1967L43.2317 19.9922Z" fill="white"/>
<path d="M43.2311 19.8629L0.00396729 19.9087L0.00417913 20.1132L43.2313 20.0674L43.2311 19.8629Z" fill="white"/>
<path d="M43.2338 19.722L0.00671387 19.7754L0.00696102 19.9799L43.2341 19.9265L43.2338 19.722Z" fill="white"/>
<path d="M43.2311 19.586L0.00402832 19.647L0.00431078 19.8515L43.2314 19.7905L43.2311 19.586Z" fill="white"/>
<path d="M43.231 19.4497L0.00384521 19.5107L0.00412768 19.7152L43.2312 19.6542L43.231 19.4497Z" fill="white"/>
<path d="M43.2334 19.3158L0.00628662 19.3691L0.00653378 19.5736L43.2337 19.5203L43.2334 19.3158Z" fill="white"/>
<path d="M43.2331 19.1842L0.00598145 19.23L0.00619329 19.4345L43.2333 19.3887L43.2331 19.1842Z" fill="white"/>
<path d="M43.233 19.0457L0.00592041 19.0991L0.00616756 19.3036L43.2333 19.2502L43.233 19.0457Z" fill="white"/>
<path d="M43.2302 18.9072L0.00305176 18.9683L0.00333422 19.1728L43.2305 19.1117L43.2302 18.9072Z" fill="white"/>
<path d="M43.2327 18.778L0.0055542 18.8237L0.00576605 19.0282L43.2329 18.9825L43.2327 18.778Z" fill="white"/>
<path d="M43.2326 18.6366L0.00543213 18.6899L0.00567928 18.8944L43.2328 18.8411L43.2326 18.6366Z" fill="white"/>
<path d="M43.2324 18.5033L0.00524902 18.5566L0.00549618 18.7611L43.2326 18.7078L43.2324 18.5033Z" fill="white"/>
<path d="M43.2322 18.3643L0.00506592 18.4253L0.00534838 18.6298L43.2325 18.5688L43.2322 18.3643Z" fill="white"/>
<path d="M43.2293 18.2303L0.00219727 18.2837L0.00244442 18.4882L43.2296 18.4348L43.2293 18.2303Z" fill="white"/>
<path d="M43.2293 18.0988L0.00219727 18.1445L0.00240911 18.349L43.2296 18.3033L43.2293 18.0988Z" fill="white"/>
<path d="M43.2292 17.965L0.00201416 18.0107L0.00222601 18.2152L43.2294 18.1695L43.2292 17.965Z" fill="white"/>
<path d="M43.2286 17.8171L0.00146484 17.8857L0.00178261 18.0902L43.2289 18.0216L43.2286 17.8171Z" fill="white"/>
<path d="M43.2285 17.6856L0.00140381 17.7466L0.00168627 17.9511L43.2288 17.8901L43.2285 17.6856Z" fill="white"/>
<path d="M43.2312 17.5516L0.00408936 17.605L0.00433651 17.8095L43.2315 17.7561L43.2312 17.5516Z" fill="white"/>
<path d="M43.2311 17.4178L0.00396729 17.4712L0.00421444 17.6757L43.2313 17.6223L43.2311 17.4178Z" fill="white"/>
<path d="M43.228 17.2788L0.000854492 17.3398L0.00113695 17.5443L43.2283 17.4833L43.228 17.2788Z" fill="white"/>
<path d="M43.2275 17.1379L0.000427246 17.2065L0.000745016 17.411L43.2279 17.3424L43.2275 17.1379Z" fill="white"/>
<path d="M43.2255 17.0138L-0.00164795 17.0596L-0.0014361 17.2641L43.2257 17.2183L43.2255 17.0138Z" fill="white"/>
<path d="M43.2281 16.88L0.000915527 16.9258L0.00112737 17.1303L43.2283 17.0845L43.2281 16.88Z" fill="white"/>
<path d="M43.2276 16.7386L0.000427246 16.792L0.0006744 16.9965L43.2278 16.9431L43.2276 16.7386Z" fill="white"/>
<path d="M43.227 16.6006L-0.00012207 16.6616L0.000160392 16.8661L43.2273 16.8051L43.227 16.6006Z" fill="white"/>
<path d="M43.2272 16.4661L0.00012207 16.5195L0.000369225 16.724L43.2275 16.6706L43.2272 16.4661Z" fill="white"/>
<path d="M43.2271 16.3328L-6.10352e-05 16.3862L0.000186119 16.5907L43.2273 16.5373L43.2271 16.3328Z" fill="white"/>
<path d="M43.2273 16.2013L0.000183105 16.2471L0.000394952 16.4516L43.2275 16.4058L43.2273 16.2013Z" fill="white"/>
<path d="M43.2258 16.0525L-0.00128174 16.1211L-0.000963969 16.3256L43.2261 16.257L43.2258 16.0525Z" fill="white"/>
<path d="M43.227 15.9284L-0.00012207 15.9741L8.97762e-05 16.1786L43.2272 16.1329L43.227 15.9284Z" fill="white"/>
<path d="M43.227 15.7946L-0.000183105 15.8403L2.87411e-05 16.0448L43.2272 15.9991L43.227 15.7946Z" fill="white"/>
<path d="M43.2263 15.6536L-0.000854492 15.707L-0.000607338 15.9115L43.2265 15.8581L43.2263 15.6536Z" fill="white"/>
<path d="M43.2255 15.5152L-0.00158691 15.5762L-0.00130445 15.7807L43.2258 15.7197L43.2255 15.5152Z" fill="white"/>
<path d="M43.2254 15.3784L-0.00177002 15.4395L-0.00148756 15.644L43.2256 15.5829L43.2254 15.3784Z" fill="white"/>
<path d="M43.2285 15.2474L0.00134277 15.3008L0.00158993 15.5053L43.2287 15.4519L43.2285 15.2474Z" fill="white"/>
<path d="M43.2262 15.1159L-0.000915527 15.1616L-0.000703681 15.3661L43.2264 15.3204L43.2262 15.1159Z" fill="white"/>
<path fill-rule="evenodd" clip-rule="evenodd" d="M6.10352e-05 15.2328V15.26L43.2272 15.2055V15.1782L6.10352e-05 15.2328Z" fill="white"/>
</g>
<path fill-rule="evenodd" clip-rule="evenodd" d="M21.9912 7.06891C29.3441 7.06891 35.3052 13.0948 35.3052 20.5277C35.3052 20.9831 35.2836 21.433 35.2377 21.8774C35.3483 21.9374 35.4616 21.9974 35.5749 22.0546C36.581 22.5482 37.6707 22.8236 38.7874 22.8645L38.9465 22.8699C39.049 22.1037 39.103 21.3239 39.103 20.5304C39.1057 10.9735 31.4426 3.22705 21.9912 3.22705C12.5398 3.22705 4.87946 10.9735 4.87946 20.5277C4.87946 21.283 4.92801 22.0274 5.01972 22.7554L5.05748 22.7499C6.17956 22.6027 7.25309 22.2155 8.21603 21.6184C8.38057 21.5175 8.53971 21.4084 8.69616 21.2939C8.68267 21.0403 8.67458 20.784 8.67458 20.525C8.67458 13.0921 14.6356 7.06619 21.9885 7.06619L21.9912 7.06891Z" fill="white"/>
<mask id="mask1_46_2624" style="mask-type:luminance" maskUnits="userSpaceOnUse" x="4" y="3" width="36" height="20">
<path d="M21.9912 7.06891C29.3441 7.06891 35.3052 13.0948 35.3052 20.5277C35.3052 20.9831 35.2836 21.433 35.2377 21.8774C35.3483 21.9374 35.4616 21.9974 35.5749 22.0546C36.581 22.5482 37.6707 22.8236 38.7874 22.8645L38.9465 22.8699C39.049 22.1037 39.103 21.3239 39.103 20.5304C39.1057 10.9735 31.4426 3.22705 21.9912 3.22705C12.5398 3.22705 4.87946 10.9735 4.87946 20.5277C4.87946 21.283 4.92801 22.0274 5.01972 22.7554L5.05748 22.7499C6.17956 22.6027 7.25309 22.2155 8.21603 21.6184C8.38057 21.5175 8.53971 21.4084 8.69616 21.2939C8.68267 21.0403 8.67458 20.784 8.67458 20.525C8.67458 13.0921 14.6356 7.06619 21.9885 7.06619L21.9912 7.06891Z" fill="white"/>
</mask>
<g mask="url(#mask1_46_2624)">
<path d="M39.12 22.7069L4.88306 22.7612L4.8833 22.9166L39.1203 22.8623L39.12 22.7069Z" fill="white"/>
<path d="M39.1185 22.5759L4.88147 22.6182L4.88172 22.8227L39.1187 22.7804L39.1185 22.5759Z" fill="white"/>
<path d="M39.1177 22.4437L4.88068 22.48L4.88089 22.6845L39.1179 22.6482L39.1177 22.4437Z" fill="white"/>
<path d="M39.1182 22.3059L4.88116 22.3481L4.88141 22.5526L39.1184 22.5104L39.1182 22.3059Z" fill="white"/>
<path d="M39.1186 22.1685L4.88159 22.2168L4.88187 22.4213L39.1189 22.373L39.1186 22.1685Z" fill="white"/>
<path d="M39.1172 22.0375L4.88025 22.0737L4.88046 22.2782L39.1175 22.242L39.1172 22.0375Z" fill="white"/>
<path d="M39.1204 21.8972L4.88336 21.9395L4.88361 22.144L39.1206 22.1017L39.1204 21.8972Z" fill="white"/>
<path d="M39.1197 21.7675L4.88269 21.8037L4.8829 22.0082L39.1199 21.972L39.1197 21.7675Z" fill="white"/>
<path d="M39.1151 21.6255L4.87811 21.6738L4.8784 21.8783L39.1154 21.83L39.1151 21.6255Z" fill="white"/>
<path d="M39.1155 21.4852L4.87848 21.5396L4.8788 21.744L39.1158 21.6897L39.1155 21.4852Z" fill="white"/>
<path d="M39.1165 21.3583L4.87952 21.3945L4.87973 21.599L39.1167 21.5628L39.1165 21.3583Z" fill="white"/>
<path d="M39.1168 21.2209L4.87982 21.2632L4.88007 21.4677L39.1171 21.4254L39.1168 21.2209Z" fill="white"/>
<path d="M39.1144 21.083L4.87744 21.1313L4.87772 21.3358L39.1147 21.2875L39.1144 21.083Z" fill="white"/>
<path d="M39.1142 20.9468L4.8772 20.9951L4.87748 21.1996L39.1145 21.1513L39.1142 20.9468Z" fill="white"/>
<path d="M39.1163 20.8117L4.87933 20.854L4.87958 21.0585L39.1166 21.0162L39.1163 20.8117Z" fill="white"/>
<path d="M39.1158 20.6825L4.87885 20.7188L4.87906 20.9232L39.1161 20.887L39.1158 20.6825Z" fill="white"/>
<path d="M39.1157 20.5458L4.87866 20.582L4.87887 20.7865L39.1159 20.7503L39.1157 20.5458Z" fill="white"/>
<path d="M39.1165 20.3997L4.87952 20.4541L4.87983 20.6586L39.1168 20.6042L39.1165 20.3997Z" fill="white"/>
<path d="M39.1154 20.2733L4.87842 20.3096L4.87863 20.5141L39.1156 20.4778L39.1154 20.2733Z" fill="white"/>
<path d="M39.1153 20.1395L4.8783 20.1758L4.87851 20.3803L39.1155 20.344L39.1153 20.1395Z" fill="white"/>
<path d="M39.1153 19.9992L4.87836 20.0415L4.8786 20.246L39.1156 20.2037L39.1153 19.9992Z" fill="white"/>
<path d="M39.1154 19.8613L4.87842 19.9097L4.8787 20.1142L39.1157 20.0658L39.1154 19.8613Z" fill="white"/>
<path d="M39.1177 19.7268L4.88074 19.769L4.88098 19.9735L39.118 19.9313L39.1177 19.7268Z" fill="white"/>
<path d="M39.1149 19.593L4.87787 19.6353L4.87812 19.8398L39.1151 19.7975L39.1149 19.593Z" fill="white"/>
<path d="M39.1146 19.4608L4.87756 19.4971L4.87778 19.7016L39.1148 19.6653L39.1146 19.4608Z" fill="white"/>
<path d="M39.1121 19.3148L4.87512 19.3691L4.87544 19.5736L39.1124 19.5193L39.1121 19.3148Z" fill="white"/>
<path d="M39.1118 19.1826L4.87482 19.231L4.8751 19.4355L39.1121 19.3871L39.1118 19.1826Z" fill="white"/>
<path d="M39.1142 19.0546L4.8772 19.0908L4.87741 19.2953L39.1144 19.2591L39.1142 19.0546Z" fill="white"/>
<path d="M39.1141 18.9143L4.87708 18.9565L4.87732 19.161L39.1143 19.1188L39.1141 18.9143Z" fill="white"/>
<path d="M39.1112 18.7764L4.87427 18.8247L4.87455 19.0292L39.1115 18.9809L39.1112 18.7764Z" fill="white"/>
<path d="M39.1137 18.6397L4.87671 18.688L4.87699 18.8925L39.114 18.8442L39.1137 18.6397Z" fill="white"/>
<path d="M39.1136 18.5075L4.87659 18.5498L4.87683 18.7543L39.1138 18.712L39.1136 18.5075Z" fill="white"/>
<path d="M39.1135 18.3754L4.87646 18.4116L4.87668 18.6161L39.1137 18.5799L39.1135 18.3754Z" fill="white"/>
<path d="M39.1131 18.2293L4.8761 18.2837L4.87642 18.4882L39.1134 18.4338L39.1131 18.2293Z" fill="white"/>
<path d="M39.113 18.0972L4.87598 18.1455L4.87626 18.35L39.1132 18.3017L39.113 18.0972Z" fill="white"/>
<path d="M39.113 17.9696L4.87604 18.0059L4.87625 18.2104L39.1132 18.1741L39.113 17.9696Z" fill="white"/>
<path d="M39.1127 17.8288L4.87573 17.8711L4.87598 18.0756L39.113 18.0333L39.1127 17.8288Z" fill="white"/>
<path d="M39.1127 17.6967L4.87573 17.7329L4.87594 17.9374L39.1129 17.9012L39.1127 17.6967Z" fill="white"/>
<path d="M39.1122 17.5547L4.87524 17.603L4.87553 17.8075L39.1125 17.7592L39.1122 17.5547Z" fill="white"/>
<path d="M39.1122 17.4226L4.87524 17.4648L4.87549 17.6693L39.1125 17.6271L39.1122 17.4226Z" fill="white"/>
<path d="M39.1096 17.2904L4.87262 17.3267L4.87283 17.5312L39.1098 17.4949L39.1096 17.2904Z" fill="white"/>
<path d="M39.1119 17.1501L4.87494 17.1924L4.87519 17.3969L39.1122 17.3546L39.1119 17.1501Z" fill="white"/>
<path d="M39.1087 17.0122L4.87177 17.0605L4.87205 17.265L39.109 17.2167L39.1087 17.0122Z" fill="white"/>
<path d="M39.1119 16.8842L4.87488 16.9204L4.87509 17.1249L39.1121 17.0887L39.1119 16.8842Z" fill="white"/>
<path d="M39.1114 16.7438L4.87445 16.7861L4.8747 16.9906L39.1117 16.9483L39.1114 16.7438Z" fill="white"/>
<path d="M39.1116 16.6117L4.87463 16.6479L4.87485 16.8524L39.1118 16.8162L39.1116 16.6117Z" fill="white"/>
<path d="M39.1107 16.4693L4.87372 16.5176L4.874 16.7221L39.111 16.6738L39.1107 16.4693Z" fill="white"/>
<path d="M39.1101 16.3319L4.87311 16.3862L4.87343 16.5907L39.1104 16.5364L39.1101 16.3319Z" fill="white"/>
<path d="M39.1112 16.205L4.87421 16.2412L4.87442 16.4457L39.1114 16.4095L39.1112 16.205Z" fill="white"/>
<path d="M39.1106 16.0651L4.87366 16.1074L4.8739 16.3119L39.1109 16.2696L39.1106 16.0651Z" fill="white"/>
<path d="M39.11 15.9268L4.87299 15.9751L4.87327 16.1796L39.1103 16.1313L39.11 15.9268Z" fill="white"/>
<path d="M39.1098 15.7935L4.8728 15.8418L4.87309 16.0463L39.1101 15.998L39.1098 15.7935Z" fill="white"/>
<path d="M39.1101 15.6584L4.87311 15.7007L4.87336 15.9052L39.1103 15.8629L39.1101 15.6584Z" fill="white"/>
<path d="M39.1105 15.5263L4.87347 15.5625L4.87369 15.767L39.1107 15.7308L39.1105 15.5263Z" fill="white"/>
<path d="M39.1104 15.39L4.87341 15.4263L4.87362 15.6308L39.1106 15.5945L39.1104 15.39Z" fill="white"/>
<path d="M39.1084 15.2464L4.87146 15.3008L4.87178 15.5053L39.1087 15.4509L39.1084 15.2464Z" fill="white"/>
<path d="M39.1074 15.12L4.87042 15.1562L4.87063 15.3607L39.1076 15.3245L39.1074 15.12Z" fill="white"/>
<path d="M39.1093 14.9797L4.87231 15.022L4.87256 15.2265L39.1095 15.1842L39.1093 14.9797Z" fill="white"/>
<path d="M39.1091 14.843L4.87213 14.8853L4.87238 15.0898L39.1094 15.0475L39.1091 14.843Z" fill="white"/>
<path d="M39.1083 14.708L4.87134 14.7563L4.87162 14.9608L39.1086 14.9125L39.1083 14.708Z" fill="white"/>
<path d="M39.1088 14.573L4.87183 14.6152L4.87207 14.8197L39.1091 14.7775L39.1088 14.573Z" fill="white"/>
<path d="M39.1067 14.4408L4.86969 14.4771L4.8699 14.6816L39.1069 14.6453L39.1067 14.4408Z" fill="white"/>
<path d="M39.1092 14.3046L4.87219 14.3408L4.8724 14.5453L39.1094 14.5091L39.1092 14.3046Z" fill="white"/>
<path d="M39.1068 14.1615L4.86981 14.2158L4.87013 14.4203L39.1071 14.366L39.1068 14.1615Z" fill="white"/>
<path d="M39.1073 14.0293L4.87036 14.0776L4.87064 14.2821L39.1076 14.2338L39.1073 14.0293Z" fill="white"/>
<path d="M39.108 13.8947L4.87103 13.937L4.87128 14.1415L39.1083 14.0992L39.108 13.8947Z" fill="white"/>
<path d="M39.1078 13.758L4.87079 13.8003L4.87104 14.0048L39.108 13.9625L39.1078 13.758Z" fill="white"/>
<path d="M39.1068 13.6231L4.86981 13.6714L4.87009 13.8759L39.1071 13.8276L39.1068 13.6231Z" fill="white"/>
<path d="M39.1084 13.4823L4.8714 13.5366L4.87172 13.7411L39.1087 13.6868L39.1084 13.4823Z" fill="white"/>
<path d="M39.1083 13.3558L4.87128 13.3921L4.87149 13.5966L39.1085 13.5603L39.1083 13.3558Z" fill="white"/>
<path d="M39.1081 13.2196L4.87109 13.2559L4.87131 13.4604L39.1083 13.4241L39.1081 13.2196Z" fill="white"/>
<path d="M39.107 13.0817L4.87 13.124L4.87024 13.3285L39.1072 13.2862L39.107 13.0817Z" fill="white"/>
<path d="M39.1059 12.9439L4.8689 12.9922L4.86918 13.1967L39.1062 13.1484L39.1059 12.9439Z" fill="white"/>
<path d="M39.1067 12.8093L4.86969 12.8516L4.86994 13.0561L39.1069 13.0138L39.1067 12.8093Z" fill="white"/>
<path d="M39.1065 12.6726L4.86951 12.7148L4.86975 12.9193L39.1067 12.8771L39.1065 12.6726Z" fill="white"/>
<path d="M39.1047 12.5433L4.86774 12.5796L4.86795 12.7841L39.1049 12.7478L39.1047 12.5433Z" fill="white"/>
<path d="M39.1051 12.4014L4.8681 12.4497L4.86839 12.6542L39.1054 12.6059L39.1051 12.4014Z" fill="white"/>
<path d="M39.106 12.2663L4.86902 12.3086L4.86927 12.5131L39.1063 12.4708L39.106 12.2663Z" fill="white"/>
<path d="M39.1042 12.1342L4.86725 12.1704L4.86746 12.3749L39.1045 12.3387L39.1042 12.1342Z" fill="white"/>
<path d="M39.1057 11.9963L4.86871 12.0386L4.86896 12.2431L39.1059 12.2008L39.1057 11.9963Z" fill="white"/>
<path d="M39.1043 11.8589L4.86737 11.9072L4.86765 12.1117L39.1046 12.0634L39.1043 11.8589Z" fill="white"/>
<path d="M39.1042 11.7227L4.86719 11.771L4.86747 11.9755L39.1044 11.9272L39.1042 11.7227Z" fill="white"/>
<path d="M39.1052 11.5876L4.86823 11.6299L4.86847 11.8344L39.1055 11.7921L39.1052 11.5876Z" fill="white"/>
<path d="M39.1063 11.4584L4.86926 11.4946L4.86947 11.6991L39.1065 11.6629L39.1063 11.4584Z" fill="white"/>
<path d="M39.1036 11.3164L4.86664 11.3647L4.86692 11.5692L39.1039 11.5209L39.1036 11.3164Z" fill="white"/>
<path d="M39.1048 11.1756L4.8678 11.23L4.86812 11.4345L39.1051 11.3801L39.1048 11.1756Z" fill="white"/>
<path d="M39.1031 11.0492L4.86615 11.0854L4.86636 11.2899L39.1034 11.2537L39.1031 11.0492Z" fill="white"/>
<path d="M39.1017 10.9113L4.86469 10.9536L4.86493 11.1581L39.1019 11.1158L39.1017 10.9113Z" fill="white"/>
<path d="M39.1042 10.7751L4.86725 10.8174L4.8675 11.0219L39.1045 10.9796L39.1042 10.7751Z" fill="white"/>
<path d="M39.1026 10.6372L4.86566 10.6855L4.86594 10.89L39.1029 10.8417L39.1026 10.6372Z" fill="white"/>
<path d="M39.1039 10.5026L4.86694 10.5449L4.86719 10.7494L39.1042 10.7071L39.1039 10.5026Z" fill="white"/>
<path d="M39.1025 10.3729L4.86548 10.4092L4.86569 10.6137L39.1027 10.5774L39.1025 10.3729Z" fill="white"/>
<path d="M39.1023 10.2367L4.8653 10.2729L4.86551 10.4774L39.1025 10.4412L39.1023 10.2367Z" fill="white"/>
<path d="M39.1031 10.0902L4.86615 10.1445L4.86647 10.349L39.1034 10.2947L39.1031 10.0902Z" fill="white"/>
<path d="M39.102 9.96376L4.86505 10L4.86526 10.2045L39.1023 10.1683L39.102 9.96376Z" fill="white"/>
<path d="M39.1031 9.82588L4.86609 9.86816L4.86634 10.0727L39.1033 10.0304L39.1031 9.82588Z" fill="white"/>
<path d="M39.1029 9.69014L4.86591 9.73242L4.86615 9.93692L39.1031 9.89464L39.1029 9.69014Z" fill="white"/>
<path d="M39.1012 9.55226L4.8642 9.60059L4.86448 9.80509L39.1015 9.75676L39.1012 9.55226Z" fill="white"/>
<path d="M39.1026 9.41719L4.8656 9.45947L4.86585 9.66397L39.1028 9.62169L39.1026 9.41719Z" fill="white"/>
<path d="M39.104 9.28798L4.867 9.32422L4.86722 9.52872L39.1042 9.49248L39.104 9.28798Z" fill="white"/>
<path d="M39.1039 9.15126L4.86694 9.1875L4.86716 9.392L39.1042 9.35576L39.1039 9.15126Z" fill="white"/>
<path d="M39.1014 9.00521L4.86444 9.05957L4.86476 9.26407L39.1017 9.20971L39.1014 9.00521Z" fill="white"/>
<path d="M39.1002 8.87306L4.86322 8.92139L4.8635 9.12589L39.1005 9.07756L39.1002 8.87306Z" fill="white"/>
<path d="M39.099 8.74092L4.86206 8.7832L4.86231 8.9877L39.0993 8.94542L39.099 8.74092Z" fill="white"/>
<path d="M39.0989 8.60469L4.86194 8.64697L4.86219 8.85147L39.0992 8.80919L39.0989 8.60469Z" fill="white"/>
<path d="M39.0997 8.46681L4.86267 8.51514L4.86295 8.71964L39.0999 8.67131L39.0997 8.46681Z" fill="white"/>
<path d="M39.1004 8.32649L4.8634 8.38086L4.86372 8.58536L39.1007 8.53099L39.1004 8.32649Z" fill="white"/>
<path d="M39.1002 8.20253L4.86322 8.23877L4.86343 8.44327L39.1004 8.40703L39.1002 8.20253Z" fill="white"/>
<path d="M39.1001 8.0663L4.8631 8.10254L4.86331 8.30704L39.1003 8.2708L39.1001 8.0663Z" fill="white"/>
<path d="M39.1008 7.92549L4.86377 7.96777L4.86402 8.17227L39.101 8.12999L39.1008 7.92549Z" fill="white"/>
<path d="M39.0987 7.78761L4.86169 7.83594L4.86198 8.04044L39.099 7.99211L39.0987 7.78761Z" fill="white"/>
<path d="M39.1004 7.65547L4.8634 7.69775L4.86365 7.90225L39.1006 7.85997L39.1004 7.65547Z" fill="white"/>
<path d="M39.1003 7.51973L4.86328 7.56201L4.86353 7.76651L39.1005 7.72423L39.1003 7.51973Z" fill="white"/>
<path d="M39.0994 7.38759L4.86237 7.42383L4.86258 7.62833L39.0996 7.59208L39.0994 7.38759Z" fill="white"/>
<path d="M39.0987 7.24105L4.86169 7.29541L4.86201 7.49991L39.099 7.44554L39.0987 7.24105Z" fill="white"/>
<path d="M39.0991 7.11757L4.86206 7.15381L4.86227 7.35831L39.0993 7.32206L39.0991 7.11757Z" fill="white"/>
<path d="M39.0989 6.98085L4.86194 7.01709L4.86215 7.22159L39.0991 7.18535L39.0989 6.98085Z" fill="white"/>
<path d="M39.0995 6.84004L4.86249 6.88232L4.86273 7.08682L39.0997 7.04454L39.0995 6.84004Z" fill="white"/>
<path d="M39.0972 6.70265L4.86023 6.75098L4.86051 6.95548L39.0975 6.90715L39.0972 6.70265Z" fill="white"/>
<path d="M39.097 6.56886L4.86005 6.61719L4.86033 6.82169L39.0973 6.77336L39.097 6.56886Z" fill="white"/>
<path d="M39.0963 6.43428L4.85931 6.47656L4.85956 6.68106L39.0965 6.63878L39.0963 6.43428Z" fill="white"/>
<path d="M39.0983 6.30214L4.86127 6.33838L4.86148 6.54288L39.0985 6.50664L39.0983 6.30214Z" fill="white"/>
<path d="M39.097 6.1556L4.86005 6.20996L4.86036 6.41446L39.0973 6.3601L39.097 6.1556Z" fill="white"/>
<path d="M39.0963 6.02638L4.85931 6.07471L4.8596 6.27921L39.0966 6.23088L39.0963 6.02638Z" fill="white"/>
<path d="M39.0978 5.89589L4.86084 5.93213L4.86105 6.13663L39.098 6.10039L39.0978 5.89589Z" fill="white"/>
<path d="M39.0981 5.75508L4.86115 5.79736L4.86139 6.00186L39.0984 5.95958L39.0981 5.75508Z" fill="white"/>
<path d="M39.0975 5.62294L4.86053 5.65918L4.86075 5.86368L39.0977 5.82744L39.0975 5.62294Z" fill="white"/>
<path d="M39.0982 5.4839L4.86127 5.53223L4.86155 5.73673L39.0985 5.6884L39.0982 5.4839Z" fill="white"/>
<path d="M39.0976 5.34932L4.86066 5.3916L4.8609 5.5961L39.0979 5.55382L39.0976 5.34932Z" fill="white"/>
<path d="M39.0998 5.21718L4.86285 5.25342L4.86307 5.45792L39.1001 5.42167L39.0998 5.21718Z" fill="white"/>
<path d="M39.1 5.07637L4.86304 5.11865L4.86328 5.32315L39.1003 5.28087L39.1 5.07637Z" fill="white"/>
<path d="M39.0978 4.93685L4.86084 4.99121L4.86116 5.19571L39.0981 5.14135L39.0978 4.93685Z" fill="white"/>
<path d="M39.0994 4.81044L4.86243 4.84668L4.86264 5.05118L39.0996 5.01494L39.0994 4.81044Z" fill="white"/>
<path d="M39.0995 4.66963L4.86255 4.71191L4.8628 4.91641L39.0998 4.87413L39.0995 4.66963Z" fill="white"/>
<path d="M39.0967 4.53389L4.85968 4.57617L4.85993 4.78067L39.0969 4.73839L39.0967 4.53389Z" fill="white"/>
<path d="M39.0967 4.39894L4.85974 4.44727L4.86002 4.65176L39.097 4.60344L39.0967 4.39894Z" fill="white"/>
<path d="M39.0968 4.25814L4.8598 4.3125L4.86012 4.517L39.0971 4.46263L39.0968 4.25814Z" fill="white"/>
<path d="M39.096 4.13173L4.85901 4.16797L4.85922 4.37247L39.0962 4.33623L39.096 4.13173Z" fill="white"/>
<path d="M39.0959 3.9955L4.85889 4.03174L4.8591 4.23624L39.0961 4.19999L39.0959 3.9955Z" fill="white"/>
<path d="M39.0961 3.85189L4.85913 3.90625L4.85945 4.11075L39.0964 4.05638L39.0961 3.85189Z" fill="white"/>
<path d="M39.0958 3.71974L4.85883 3.76807L4.85911 3.97257L39.0961 3.92424L39.0958 3.71974Z" fill="white"/>
<path d="M39.0955 3.58467L4.85852 3.62695L4.85877 3.83145L39.0958 3.78917L39.0955 3.58467Z" fill="white"/>
<path d="M39.0954 3.44844L4.8584 3.49072L4.85865 3.69522L39.0956 3.65294L39.0954 3.44844Z" fill="white"/>
<path d="M39.0952 3.31874L4.85815 3.35498L4.85837 3.55948L39.0954 3.52324L39.0952 3.31874Z" fill="white"/>
<path d="M39.0951 3.17269L4.85809 3.22705L4.85841 3.43155L39.0954 3.37719L39.0951 3.17269Z" fill="white"/>
<path d="M39.0948 3.04628L4.85785 3.08252L4.85806 3.28702L39.0951 3.25078L39.0948 3.04628Z" fill="white"/>
<path d="M39.095 3.09908L4.85803 3.16553L4.85819 3.25005L39.0951 3.18361L39.095 3.09908Z" fill="white"/>
</g>
<path d="M43.238 29.8804H0.0162354V33.9676H43.238V29.8804Z" fill="white"/>
<mask id="mask2_46_2624" style="mask-type:luminance" maskUnits="userSpaceOnUse" x="0" y="29" width="44" height="5">
<path d="M43.238 29.8804H0.0162354V33.9676H43.238V29.8804Z" fill="white"/>
</mask>
<g mask="url(#mask2_46_2624)">
<path d="M43.2455 33.827L0.0183716 33.8804L0.0185396 34.0194L43.2457 33.966L43.2455 33.827Z" fill="white"/>
<path d="M43.2399 33.6939L0.0127563 33.7549L0.0130388 33.9594L43.2402 33.8984L43.2399 33.6939Z" fill="white"/>
<path d="M43.2422 33.5529L0.0150757 33.6216L0.0153935 33.8261L43.2425 33.7574L43.2422 33.5529Z" fill="white"/>
<path d="M43.2425 33.4284L0.0153198 33.4741L0.0155317 33.6786L43.2427 33.6329L43.2425 33.4284Z" fill="white"/>
<path d="M43.2423 33.2921L0.0151367 33.3379L0.0153486 33.5424L43.2425 33.4966L43.2423 33.2921Z" fill="white"/>
<path d="M43.2389 33.1462L0.0117798 33.2148L0.0120976 33.4193L43.2392 33.3507L43.2389 33.1462Z" fill="white"/>
<path d="M43.2389 33.0152L0.0117798 33.0762L0.0120622 33.2807L43.2392 33.2197L43.2389 33.0152Z" fill="white"/>
<path d="M43.2417 32.8807L0.0145264 32.9341L0.0147735 33.1386L43.2419 33.0852L43.2417 32.8807Z" fill="white"/>
<path d="M43.2415 32.7445L0.0143433 32.7979L0.0145904 33.0024L43.2417 32.949L43.2415 32.7445Z" fill="white"/>
<path d="M43.2389 32.6154L0.0117798 32.6611L0.0119916 32.8656L43.2391 32.8199L43.2389 32.6154Z" fill="white"/>
<path d="M43.2381 32.4722L0.0109863 32.5332L0.0112688 32.7377L43.2384 32.6767L43.2381 32.4722Z" fill="white"/>
<path d="M43.241 32.3382L0.013916 32.3916L0.0141632 32.5961L43.2413 32.5427L43.241 32.3382Z" fill="white"/>
<path d="M43.2385 32.2067L0.0113525 32.2524L0.0115644 32.4569L43.2387 32.4112L43.2385 32.2067Z" fill="white"/>
<path d="M43.2407 32.0682L0.0135498 32.1216L0.013797 32.3261L43.2409 32.2727L43.2407 32.0682Z" fill="white"/>
<path d="M43.2374 31.9297L0.0102539 31.9907L0.0105364 32.1952L43.2377 32.1342L43.2374 31.9297Z" fill="white"/>
<path d="M43.2407 31.8004L0.0136108 31.8462L0.0138227 32.0507L43.241 32.0049L43.2407 31.8004Z" fill="white"/>
<path d="M43.2402 31.659L0.0130615 31.7124L0.0133087 31.9169L43.2404 31.8635L43.2402 31.659Z" fill="white"/>
<path d="M43.2404 31.5304L0.0133057 31.5762L0.0135175 31.7807L43.2407 31.7349L43.2404 31.5304Z" fill="white"/>
<path d="M43.2393 31.3872L0.012207 31.4482L0.0124895 31.6527L43.2396 31.5917L43.2393 31.3872Z" fill="white"/>
<path d="M43.2397 31.2533L0.0125732 31.3066L0.0128204 31.5111L43.2399 31.4578L43.2397 31.2533Z" fill="white"/>
<path d="M43.2374 31.1217L0.0102539 31.1675L0.0104658 31.372L43.2376 31.3262L43.2374 31.1217Z" fill="white"/>
<path d="M43.2393 30.9832L0.012207 31.0366L0.0124542 31.2411L43.2396 31.1877L43.2393 30.9832Z" fill="white"/>
<path d="M43.2359 30.8447L0.00878906 30.9058L0.00907152 31.1103L43.2362 31.0492L43.2359 30.8447Z" fill="white"/>
<path d="M43.2357 30.7085L0.00860596 30.7695L0.00888842 30.974L43.236 30.913L43.2357 30.7085Z" fill="white"/>
<path d="M43.2389 30.5741L0.0117188 30.6274L0.0119659 30.8319L43.2391 30.7786L43.2389 30.5741Z" fill="white"/>
<path d="M43.2367 30.445L0.00952148 30.4907L0.00973333 30.6952L43.2369 30.6495L43.2367 30.445Z" fill="white"/>
<path d="M43.2352 30.3018L0.00805664 30.3628L0.0083391 30.5673L43.2355 30.5063L43.2352 30.3018Z" fill="white"/>
<path d="M43.2369 30.1609L0.00982666 30.2295L0.0101444 30.434L43.2373 30.3654L43.2369 30.1609Z" fill="white"/>
<path d="M43.2362 30.0363L0.00909424 30.082L0.00930608 30.2865L43.2364 30.2408L43.2362 30.0363Z" fill="white"/>
<path d="M43.2381 29.8978L0.0109253 29.9512L0.0111724 30.1557L43.2383 30.1023L43.2381 29.8978Z" fill="white"/>
<path d="M43.2379 29.7616L0.0107422 29.8149L0.0109893 30.0194L43.2381 29.9661L43.2379 29.7616Z" fill="white"/>
<path d="M43.237 29.6231L0.00982666 29.6841L0.0101091 29.8886L43.2372 29.8276L43.237 29.6231Z" fill="white"/>
<path d="M43.2362 29.6862L0.00909424 29.7549L0.00930185 29.8885L43.2364 29.8199L43.2362 29.6862Z" fill="white"/>
</g>
<path d="M64.5902 17.7258H54.8609V0.746156L59.0111 0.733398V13.8477H65.6984L64.5902 17.729V17.7258Z" fill="white"/>
<path d="M79.1589 8.92384C79.5177 9.73073 79.6955 10.5918 79.6955 11.5103V11.6188C79.6955 11.6602 79.6924 11.7017 79.6828 11.7495L79.6574 11.9536H78.1777V11.9792H69.9757C70.071 12.6489 70.3599 13.2294 70.8458 13.7141C71.4586 14.3201 72.1731 14.6231 72.9923 14.6231C73.8116 14.6231 74.5356 14.3201 75.1389 13.7141L75.1643 13.6918L75.1992 13.644L75.2341 13.6089L75.2595 13.5738L77.3108 16.5207C76.7234 16.9991 76.1264 17.3626 75.5231 17.6114C74.7134 17.9303 73.8687 18.0898 72.9955 18.0898C71.8111 18.0898 70.7092 17.806 69.6931 17.2383C68.6516 16.6642 67.8292 15.8764 67.2259 14.8782C66.6067 13.88 66.2955 12.7573 66.2955 11.5135C66.2955 10.5791 66.4733 9.71797 66.8321 8.92703C67.1909 8.12971 67.6831 7.43445 68.3118 6.84444C68.9469 6.23848 69.6614 5.77922 70.4584 5.46667C71.2776 5.14775 72.1223 4.98828 72.9987 4.98828C73.8751 4.98828 74.7166 5.14775 75.5263 5.46667C76.3296 5.77922 77.0473 6.2321 77.6855 6.83168C78.3143 7.41532 78.8064 8.11377 79.1653 8.92703L79.1589 8.92384ZM72.9955 8.44545C72.462 8.44545 71.9635 8.58259 71.4936 8.85368C71.2078 9.02909 70.9283 9.27785 70.6584 9.59678H75.3326C75.0627 9.27785 74.7832 9.02909 74.4975 8.85368C74.0275 8.58259 73.529 8.44545 72.9955 8.44545Z" fill="white"/>
<path d="M85.5636 8.44499C84.5951 8.48645 84.1093 9.16258 84.1093 10.4797V17.7258H80.2925V10.4797C80.2925 6.99068 82.0485 5.16004 85.5636 4.98145H85.7795C89.2915 5.15686 91.0506 6.99068 91.0506 10.4797V17.7258H87.2338V10.4797C87.2338 9.16258 86.748 8.48326 85.7795 8.44499H85.5636Z" fill="white"/>
<path d="M101.04 9.16586C100.697 8.87883 100.326 8.66196 99.9195 8.51844C99.4972 8.37492 99.0526 8.30157 98.5827 8.30157C97.7094 8.30157 96.9696 8.58541 96.3663 9.1531C95.7534 9.72079 95.4486 10.4224 95.4486 11.2612C95.4486 11.915 95.5788 12.5018 95.8423 13.0217C96.0963 13.5415 96.4742 13.953 96.9759 14.2559C97.4618 14.5685 98.0206 14.7216 98.6557 14.7216C99.5924 14.7216 100.396 14.4218 101.063 13.8222L103.149 16.482C102.847 16.801 102.425 17.0848 101.885 17.3336C101.336 17.5823 100.774 17.7641 100.193 17.8853C99.6115 18.0065 99.0748 18.0639 98.5827 18.0639C97.1982 18.0639 95.9789 17.7737 94.9215 17.1901C93.8641 16.6 93.0543 15.8251 92.4891 14.8683C91.9239 13.8955 91.6413 12.8527 91.6413 11.7428C91.6413 10.7286 91.8128 9.81009 92.1557 8.98726C92.505 8.14848 92.9877 7.4309 93.5973 6.83131C94.2006 6.24768 94.9373 5.78842 95.8042 5.45355C96.6616 5.12506 97.5888 4.9624 98.5827 4.9624C99.3924 4.9624 100.183 5.08997 100.955 5.34511C101.733 5.60982 102.422 5.97978 103.019 6.45817L101.04 9.16586Z" fill="white"/>
<path d="M105.953 17.2605C104.873 16.6864 104.012 15.8987 103.377 14.9004C102.733 13.8958 102.412 12.77 102.412 11.523C102.412 10.5885 102.599 9.71786 102.971 8.91098C103.346 8.10409 103.857 7.40564 104.508 6.81563C105.168 6.21605 105.918 5.75679 106.762 5.43786C107.62 5.11894 108.499 4.95947 109.398 4.95947C110.297 4.95947 111.186 5.11894 112.046 5.43786C112.881 5.74084 113.631 6.19691 114.301 6.80287C114.961 7.40883 115.472 8.11366 115.838 8.91098C116.212 9.71786 116.396 10.5885 116.396 11.523C116.396 12.4574 116.212 13.3441 115.847 14.135C115.482 14.9323 114.964 15.6403 114.298 16.2559C113.621 16.8618 112.872 17.3211 112.043 17.6336C111.208 17.9621 110.325 18.1248 109.395 18.1248C108.179 18.1248 107.029 17.8377 105.949 17.2637L105.953 17.2605ZM107.169 13.7268C107.798 14.3423 108.541 14.6485 109.398 14.6485C110.255 14.6485 111.011 14.3423 111.64 13.7268C112.275 13.1112 112.592 12.3777 112.592 11.523C112.592 10.9649 112.446 10.4482 112.151 9.97938C111.856 9.51056 111.462 9.13423 110.97 8.85357C110.484 8.57292 109.96 8.43578 109.395 8.43578C108.83 8.43578 108.325 8.5761 107.832 8.85357C107.34 9.13423 106.947 9.50737 106.651 9.97938C106.356 10.4514 106.21 10.9649 106.21 11.523C106.21 12.3777 106.527 13.1112 107.162 13.7268H107.169Z" fill="white"/>
<path d="M123.481 13.8699C124.236 14.629 125.157 15.0085 126.246 15.0085C127.336 15.0085 127.952 14.6736 127.952 14.0039C127.952 13.653 127.637 13.3915 127.009 13.2257C126.564 13.1204 125.856 12.9418 124.887 12.6867C124.1 12.4794 123.436 12.0967 122.896 11.5386C122.363 10.9868 122.096 10.1417 122.096 8.99989C122.096 8.12284 122.315 7.37975 122.75 6.77378C123.195 6.16782 123.773 5.72133 124.481 5.4311C125.205 5.1345 125.996 4.98779 126.853 4.98779C127.339 4.98779 127.831 5.05477 128.333 5.19191C128.873 5.36094 129.358 5.56824 129.787 5.81381C130.257 6.07852 130.67 6.37194 131.029 6.70043L128.93 8.79578C128.317 8.33334 127.65 8.10052 126.926 8.10052C126.059 8.10052 125.627 8.34291 125.627 8.83086C125.627 9.27098 125.948 9.57715 126.593 9.75256C127.301 9.94392 128.012 10.1225 128.726 10.2915C129.514 10.4925 130.168 10.8592 130.695 11.3918C131.229 11.934 131.495 12.7887 131.495 13.956C131.495 14.8267 131.264 15.5762 130.803 16.2076C130.343 16.8455 129.727 17.3207 128.955 17.6332C128.183 17.9617 127.386 18.1244 126.558 18.1244C125.865 18.1244 125.243 18.067 124.684 17.9554C124.129 17.8501 123.608 17.6747 123.122 17.4291C122.62 17.1804 122.096 16.8519 121.547 16.4341L123.478 13.8699H123.481Z" fill="white"/>
<path d="M120.69 3.02024C120.515 3.31684 120.277 3.55604 119.975 3.73782C119.673 3.9228 119.34 4.0121 118.975 4.0121C118.61 4.0121 118.279 3.9228 117.984 3.74739C117.682 3.56241 117.444 3.32003 117.27 3.01705C117.086 2.69812 116.997 2.35687 116.997 1.99967C116.997 1.64247 117.086 1.29803 117.26 0.995052C117.451 0.682503 117.692 0.440119 117.987 0.264709C118.283 0.0892995 118.61 0 118.978 0C119.346 0 119.677 0.0892995 119.978 0.264709C120.274 0.440119 120.512 0.682503 120.693 0.995052C120.867 1.29803 120.956 1.63291 120.956 1.99967C120.956 2.36644 120.867 2.72364 120.693 3.01705L120.69 3.02024ZM120.94 5.47598V17.7515H117.136V5.48873L120.94 5.47598Z" fill="white"/>
<path d="M81.2197 28.2336C81.5626 29.0086 81.7341 29.8347 81.7341 30.7149V30.817C81.7341 30.8552 81.7309 30.8967 81.7214 30.9445L81.6992 31.1391H80.2798V31.1614H72.408C72.5001 31.8056 72.7795 32.3606 73.2432 32.8262C73.8306 33.4098 74.5165 33.7001 75.304 33.7001C76.0915 33.7001 76.7837 33.4098 77.3648 32.8262L77.387 32.8039L77.4219 32.7592L77.4569 32.7241L77.4791 32.6891L79.4478 35.5147C78.8826 35.974 78.311 36.3248 77.73 36.5608C76.952 36.867 76.1423 37.0201 75.304 37.0201C74.1672 37.0201 73.1098 36.749 72.1349 36.2036C71.1347 35.6519 70.3472 34.8992 69.7661 33.9392C69.1723 32.9825 68.8738 31.9045 68.8738 30.7117C68.8738 29.8155 69.0453 28.9895 69.3883 28.2305C69.7312 27.465 70.2043 26.7985 70.8076 26.2308C71.4173 25.6471 72.1032 25.207 72.8685 24.9104C73.6528 24.6043 74.4657 24.4512 75.304 24.4512C76.1423 24.4512 76.952 24.6043 77.73 24.9104C78.5016 25.2102 79.1906 25.6471 79.8003 26.2212C80.4036 26.7793 80.8767 27.4523 81.2197 28.2336ZM75.304 27.7744C74.7927 27.7744 74.3133 27.9052 73.8624 28.1667C73.5861 28.3357 73.3194 28.5717 73.0622 28.8779H77.5458C77.2854 28.5717 77.0187 28.3325 76.7456 28.1667C76.2947 27.9052 75.8152 27.7744 75.304 27.7744Z" fill="white"/>
<path d="M92.6732 29.4519V36.6916H88.9993V29.4519C88.939 28.3708 88.4754 27.8159 87.6149 27.784H87.4085C86.4781 27.8159 86.0113 28.4633 86.0113 29.7262V36.6916H82.3501V29.7262C82.3501 26.3934 84.0362 24.6361 87.4085 24.4512H87.6149C88.958 24.5277 90.0313 24.8498 90.841 25.4175C91.6412 24.8498 92.7145 24.5277 94.0545 24.4512H94.2609C97.6332 24.6361 99.3193 26.3934 99.3193 29.7262V36.6916H95.6581V29.7262C95.6581 28.4633 95.1913 27.8159 94.2609 27.784H94.0545C93.194 27.8159 92.7304 28.3708 92.6701 29.4519H92.6732Z" fill="white"/>
<path d="M102.958 23.1566L102.946 20.4106H108.598V36.6951L104.822 36.7078V23.2044L102.958 23.1598V23.1566Z" fill="white"/>
<path d="M125.637 30.8205C125.63 31.9846 125.319 33.0403 124.71 33.9811C124.1 34.9379 123.274 35.6905 122.239 36.2327C121.201 36.7845 120.099 37.0587 118.934 37.0587C118.041 37.0587 117.193 36.9025 116.393 36.5867C115.599 36.2965 114.879 35.8564 114.231 35.2664C113.589 34.6763 113.094 34.0034 112.745 33.2444C112.392 32.4853 112.218 31.6497 112.218 30.7376C112.218 29.8255 112.395 29.0186 112.754 28.2436C113.107 27.4782 113.596 26.8084 114.231 26.2312C114.872 25.6475 115.593 25.2074 116.393 24.9108C117.216 24.611 118.064 24.4611 118.934 24.4611C119.804 24.4611 120.639 24.611 121.461 24.9108L121.725 25.0256L121.988 25.1404V20.2896L125.637 20.3023V30.8173V30.8205ZM121.988 30.7408C121.988 30.205 121.845 29.7138 121.566 29.2705C121.283 28.8177 120.905 28.4573 120.432 28.1894C119.966 27.9215 119.467 27.7875 118.934 27.7875C118.4 27.7875 117.895 27.9215 117.422 28.1894C116.949 28.4573 116.571 28.8177 116.288 29.2705C116.006 29.7138 115.866 30.205 115.866 30.7408C115.866 31.5604 116.171 32.2653 116.781 32.8553C117.384 33.4453 118.102 33.7387 118.93 33.7387C119.759 33.7387 120.467 33.4453 121.071 32.8553C121.68 32.2653 121.985 31.5604 121.985 30.7408H121.988Z" fill="white"/>
<path d="M129.755 22.5702C129.587 22.854 129.358 23.0836 129.069 23.2591C128.78 23.4345 128.46 23.5238 128.107 23.5238C127.755 23.5238 127.44 23.4408 127.158 23.2718C126.869 23.0964 126.64 22.8604 126.472 22.5702C126.297 22.264 126.208 21.9387 126.208 21.5943C126.208 21.2498 126.291 20.9213 126.459 20.6279C126.643 20.3281 126.875 20.0953 127.158 19.9263C127.44 19.7572 127.758 19.6743 128.107 19.6743C128.457 19.6743 128.777 19.7572 129.069 19.9263C129.352 20.0953 129.581 20.3281 129.755 20.6279C129.924 20.9181 130.006 21.2402 130.006 21.5943C130.006 21.9483 129.924 22.2863 129.755 22.5702ZM129.997 24.927V36.705H126.348V24.9366L129.997 24.9239V24.927Z" fill="white"/>
<path d="M140.364 36.3344C140.12 36.4428 139.942 36.513 139.828 36.5513C139.018 36.8638 138.173 37.0233 137.287 37.0233C136.119 37.0233 135.017 36.7522 133.982 36.2068C132.943 35.6551 132.121 34.9056 131.511 33.9552C130.892 32.9888 130.584 31.9141 130.584 30.7277C130.584 29.8315 130.762 28.9959 131.121 28.2209C131.479 27.4555 131.972 26.7889 132.597 26.2212C133.216 25.6535 133.931 25.223 134.747 24.9232C135.563 24.6106 136.411 24.4512 137.287 24.4512C138.164 24.4512 139.002 24.6043 139.828 24.9104C140.65 25.2166 141.368 25.6535 141.977 26.2212C142.619 26.8049 143.114 27.4714 143.463 28.2209C143.822 28.9959 144 29.8283 144 30.7277L143.987 36.7139L140.361 36.6788V36.3344H140.364ZM134.655 29.2446C134.372 29.6975 134.233 30.1919 134.233 30.7277C134.233 31.5409 134.537 32.2394 135.147 32.8294C135.75 33.413 136.462 33.7032 137.287 33.7032C138.113 33.7032 138.837 33.413 139.437 32.8294C140.047 32.2394 140.351 31.5377 140.351 30.7277C140.351 30.1919 140.212 29.6975 139.929 29.2446C139.647 28.7918 139.269 28.4314 138.796 28.1635C138.329 27.902 137.827 27.7712 137.284 27.7712C136.741 27.7712 136.258 27.902 135.785 28.1635C135.312 28.4314 134.934 28.7918 134.652 29.2446H134.655Z" fill="white"/>
<path fill-rule="evenodd" clip-rule="evenodd" d="M96.2615 16.7499C95.6391 18.1564 95.0199 19.566 94.3975 20.9725H98.7891C98.8176 19.5373 98.843 18.1022 98.8716 16.667C98.0016 16.6957 97.1315 16.7212 96.2615 16.7499Z" fill="white"/>
<path fill-rule="evenodd" clip-rule="evenodd" d="M110.636 4.37873C111.478 3.16362 112.322 1.94851 113.164 0.733398H108.772C108.518 1.97402 108.267 3.21146 108.013 4.45209C108.887 4.42657 109.763 4.40425 110.636 4.37873Z" fill="white"/>
</svg>
