<svg width="16" height="16" viewBox="0 0 16 16" fill="none" xmlns="http://www.w3.org/2000/svg">
<path fill-rule="evenodd" clip-rule="evenodd" d="M6.94295 9.26775C5.96795 8.29276 5.23295 7.20109 4.74462 6.09359C4.64129 5.85942 4.70212 5.58526 4.88295 5.40442L5.56545 4.72276C6.12462 4.16359 6.12462 3.37276 5.63629 2.88442L4.65795 1.90609C4.00712 1.25526 2.95212 1.25526 2.30129 1.90609L1.75795 2.44942C1.14045 3.06692 0.882945 3.95776 1.04962 4.84109C1.46129 7.01859 2.72629 9.40275 4.76712 11.4436C6.80795 13.4845 9.19209 14.7495 11.3696 15.1611C12.253 15.3278 13.1438 15.0703 13.7613 14.4528L14.3038 13.9103C14.9546 13.2595 14.9546 12.2045 14.3038 11.5536L13.3263 10.5761C12.838 10.0878 12.0463 10.0878 11.5588 10.5761L10.8063 11.3295C10.6255 11.5103 10.3513 11.5711 10.1171 11.4678C9.00959 10.9786 7.91799 10.2428 6.94295 9.26775Z" stroke="#F59607" stroke-width="1.5" stroke-linecap="round" stroke-linejoin="round"/>
</svg>
