<svg width="21" height="20" viewBox="0 0 21 20" fill="none" xmlns="http://www.w3.org/2000/svg">
<g clip-path="url(#clip0_17_2769)">
<path d="M0.53186 19.1256L1.87623 14.2143C1.04666 12.7767 0.610754 11.1471 0.61155 9.47595C0.613941 4.25147 4.86541 0 10.0891 0C12.624 0.000796901 15.0036 0.988157 16.7934 2.77959C18.5825 4.57102 19.5674 6.95217 19.5666 9.48472C19.5643 14.71 15.3128 18.9615 10.0891 18.9615C8.50326 18.9607 6.94054 18.563 5.55632 17.8076L0.53186 19.1256ZM5.78902 16.0918C7.12462 16.8847 8.39966 17.3597 10.0859 17.3605C14.4274 17.3605 17.9641 13.827 17.9665 9.48312C17.9681 5.13045 14.4481 1.60177 10.0923 1.60018C5.74758 1.60018 2.21332 5.13364 2.21173 9.47675C2.21093 11.2499 2.73051 12.5775 3.60312 13.9665L2.80701 16.8736L5.78902 16.0918ZM14.8633 11.7376C14.8044 11.6387 14.6466 11.5798 14.4091 11.461C14.1724 11.3423 13.0081 10.7693 12.7906 10.6904C12.5738 10.6115 12.416 10.5717 12.2575 10.8092C12.0997 11.0458 11.6454 11.5798 11.5076 11.7376C11.3697 11.8953 11.2311 11.9153 10.9944 11.7965C10.7577 11.6778 9.99426 11.4284 9.08978 10.6211C8.38612 9.99314 7.91037 9.21776 7.7725 8.98028C7.63464 8.7436 7.75816 8.6153 7.8761 8.49736C7.98289 8.39137 8.11278 8.22083 8.23152 8.08217C8.35185 7.9451 8.3909 7.84629 8.47059 7.68771C8.54948 7.52992 8.51044 7.39126 8.45067 7.27252C8.3909 7.15458 7.91754 5.98871 7.72071 5.51456C7.52786 5.05315 7.33261 5.11531 7.18758 5.10814L6.73335 5.10017C6.57556 5.10017 6.31896 5.15914 6.1022 5.39661C5.88544 5.63409 5.27342 6.20627 5.27342 7.37213C5.27342 8.538 6.12212 9.66402 6.24006 9.82181C6.3588 9.97959 7.90957 12.3719 10.2851 13.3975C10.8501 13.6414 11.2916 13.7872 11.6351 13.8964C12.2025 14.0765 12.7189 14.051 13.1269 13.9904C13.5819 13.9227 14.5278 13.4174 14.7255 12.8644C14.9231 12.3105 14.9231 11.8364 14.8633 11.7376Z" fill="white"/>
</g>
<defs>
<clipPath id="clip0_17_2769">
<rect width="20" height="20" fill="white" transform="translate(0.484375)"/>
</clipPath>
</defs>
</svg>
