<svg width="20" height="14" viewBox="0 0 20 14" fill="none" xmlns="http://www.w3.org/2000/svg">
<path d="M1.17209 11.8647C1.27877 12.2524 1.48306 12.6063 1.76545 12.8925C2.04784 13.1787 2.39889 13.3878 2.78509 13.4997C4.68509 14.0187 15.3691 14.0197 17.3021 13.4997C17.6879 13.3871 18.0386 13.1778 18.3209 12.8917C18.6032 12.6056 18.8077 12.2521 18.9151 11.8647C19.4399 8.81179 19.4321 5.69103 18.8921 2.64074L18.9151 2.79174C18.8083 2.40424 18.6039 2.05059 18.3215 1.76454C18.0391 1.47849 17.6882 1.26957 17.3021 1.15774C15.4221 0.647736 4.71609 0.627736 2.78509 1.15774C2.39934 1.27052 2.04874 1.47988 1.76648 1.76598C1.48423 2.05209 1.27964 2.40549 1.17209 2.79274C0.618825 5.79143 0.618825 8.86604 1.17209 11.8647ZM8.18909 10.1477V4.51674L13.0281 7.33674L8.18909 10.1477Z" fill="white"/>
</svg>
